<?xml version="1.0" standalone="no"?>
<!DOCTYPE svg PUBLIC "-//W3C//DTD SVG 20010904//EN"
 "http://www.w3.org/TR/2001/REC-SVG-20010904/DTD/svg10.dtd">
<svg version="1.0" xmlns="http://www.w3.org/2000/svg"
 width="300.000000pt" height="334.000000pt" viewBox="0 0 300.000000 334.000000"
 preserveAspectRatio="xMidYMid meet">
<metadata>
Created by potrace 1.10, written by Peter Selinger 2001-2011
</metadata>
<g transform="translate(0.000000,334.000000) scale(0.050000,-0.050000)"
fill="#000000" stroke="none">
<path d="M2420 6619 c-16 -8 -169 -57 -340 -109 -482 -147 -891 -375 -1271
-706 -243 -213 -488 -525 -489 -625 0 -17 -28 -75 -62 -129 -46 -73 -66 -134
-78 -239 -9 -77 -32 -244 -51 -371 -44 -289 -23 -522 71 -790 35 -99 70 -213
78 -252 9 -40 34 -99 56 -130 23 -32 70 -115 105 -185 97 -193 341 -423 541
-511 28 -12 73 -38 100 -58 123 -88 204 -134 237 -134 19 0 44 -9 56 -21 11
-11 98 -26 194 -33 l173 -12 0 -74 c0 -225 96 -592 223 -848 533 -1081 1880
-1422 2842 -718 56 41 104 63 120 54 44 -26 424 -341 453 -375 44 -54 68 -39
54 35 -26 136 49 1255 86 1300 84 101 118 746 55 1030 -20 91 -25 157 -14 171
122 147 134 1155 22 1891 -37 245 -224 604 -411 789 -44 44 -136 146 -204 227
-143 172 -739 587 -880 613 -41 8 -130 40 -196 71 -280 131 -1299 227 -1470
139z m280 -139 c0 -11 -32 -20 -71 -20 -43 0 -66 8 -59 20 7 11 39 20 71 20
33 0 59 -9 59 -20z m410 -9 c287 -13 704 -92 682 -128 -6 -9 -12 -110 -13
-224 -8 -456 -240 -898 -440 -838 -119 37 -427 96 -443 86 -9 -5 -16 -1 -16 9
0 11 -18 24 -40 30 -65 17 -67 66 -8 186 97 198 65 569 -66 762 -69 102 -48
148 61 135 35 -4 162 -12 283 -18z m-744 -105 c237 -300 260 -700 53 -896 -35
-33 -71 -80 -81 -105 -9 -25 -29 -45 -43 -45 -46 0 -304 -133 -343 -177 -81
-91 -132 -24 -132 171 0 230 -150 445 -402 576 -21 11 -38 39 -38 63 0 24 -11
47 -25 52 -42 14 280 181 515 267 113 41 422 144 437 146 10 1 36 -22 59 -52z
m1909 -228 c342 -209 512 -347 486 -396 -9 -18 -23 -72 -31 -122 -28 -171
-110 -273 -370 -462 -119 -87 -346 -198 -369 -180 -12 9 -75 50 -140 91 -106
67 -115 78 -85 101 46 33 294 333 294 355 0 9 19 59 42 109 37 81 41 122 35
339 -4 136 -5 247 -2 247 2 0 65 -37 140 -82z m-260 -193 c-5 -41 -8 -12 -8
65 -1 77 3 111 7 75 5 -35 5 -98 1 -140z m-80 -189 c-5 -48 -8 -14 -8 74 0 88
3 126 8 86 4 -41 4 -113 0 -160z m-2675 194 c0 -25 -80 -86 -131 -98 -49 -13
-53 -11 -30 17 14 17 37 31 51 31 14 0 36 14 50 30 24 29 60 41 60 20z m-106
-239 c237 -114 432 -541 401 -877 -7 -69 -1 -100 20 -111 23 -14 18 -33 -31
-110 -33 -52 -76 -148 -97 -213 -44 -142 -42 -142 -137 -38 -152 169 -530 232
-888 147 -161 -38 -149 -77 -84 291 44 250 217 535 509 835 137 141 161 147
307 76z m3913 -225 c67 -84 211 -325 265 -445 l50 -110 -46 -36 c-284 -226
-415 -275 -731 -275 -302 1 -327 6 -367 76 l-30 54 131 85 c72 47 158 101 191
120 127 74 327 292 403 439 86 168 78 162 134 92z m-2467 -106 c0 -11 -38 -19
-85 -18 -72 2 -77 4 -35 18 72 23 120 23 120 0z m660 -229 c547 -150 938 -472
884 -729 -32 -149 -51 -165 -164 -139 -267 62 -874 -29 -1160 -173 -274 -139
-647 -510 -820 -816 l-65 -117 -90 87 c-62 59 -123 153 -193 296 l-102 210 0
210 c1 357 28 436 280 805 130 190 364 372 539 418 136 35 690 3 891 -52z
m-1534 -272 c-42 -55 -79 -91 -82 -80 -9 25 111 181 138 181 10 0 -15 -45 -56
-101z m3721 -290 c7 -50 18 -200 25 -335 l13 -244 -88 -35 c-138 -55 -544 -31
-650 39 -26 17 -59 26 -73 20 -15 -5 -48 7 -75 28 -27 20 -55 37 -62 38 -7 0
-91 36 -186 80 l-173 79 54 69 55 68 236 -11 c230 -11 464 17 489 58 6 9 29
17 52 17 48 0 251 119 305 179 53 59 64 52 78 -50z m-4497 -356 c144 -68 436
-304 444 -358 3 -25 10 -65 16 -90 10 -44 6 -45 -150 -45 -239 0 -616 -218
-717 -414 l-35 -69 -34 76 c-87 199 -175 489 -185 607 -6 71 -14 153 -18 180
-21 134 462 214 679 113z m3365 -166 c46 -16 93 -24 105 -17 11 7 20 3 20 -8
0 -12 29 -35 65 -53 149 -74 431 -284 515 -384 50 -59 113 -132 140 -163 28
-30 62 -82 77 -114 15 -32 36 -74 45 -93 10 -19 18 -49 18 -67 0 -18 24 -128
54 -245 104 -409 78 -1141 -44 -1243 -35 -29 -41 -69 -7 -48 16 10 19 -21 9
-114 -7 -70 -17 -222 -22 -338 -24 -504 -22 -501 -183 -380 -165 125 -196 124
-412 -6 -1203 -727 -2622 -79 -2767 1262 l-13 126 307 -4 c255 -3 322 3 388
32 44 19 121 47 172 62 143 43 355 161 502 280 74 59 142 108 152 108 74 0
270 335 257 440 -18 145 -51 281 -83 346 -16 33 -30 75 -30 93 0 42 -99 197
-165 258 -116 106 -204 1 -107 -127 111 -145 45 -351 -137 -431 -45 -21 -89
-44 -97 -52 -35 -35 -806 -21 -851 15 -177 143 464 698 978 846 259 75 926 86
1114 19z m1185 -436 c0 -82 -8 -170 -19 -195 -10 -25 -24 -89 -31 -141 -7 -52
-19 -95 -26 -94 -17 0 -135 194 -152 250 -7 23 -57 90 -112 149 -115 125 -117
129 -49 112 29 -8 78 -1 115 17 35 16 105 33 154 37 50 4 97 9 105 11 8 1 15
-64 15 -146z m-4000 -98 c0 -14 39 -84 86 -155 l85 -131 -95 -95 c-163 -163
-197 -539 -58 -646 53 -41 -9 -30 -136 23 -275 116 -652 370 -742 501 -95 138
-70 147 31 11 90 -123 129 -139 129 -53 0 129 55 190 422 471 115 87 278 131
278 74z m2015 -423 c-14 -198 -42 -253 -113 -218 -136 68 -177 229 -79 306 28
22 72 85 98 140 l48 101 28 -94 c17 -60 24 -147 18 -235z m-1380 10 c58 -22
132 -40 165 -40 72 0 73 -6 15 -87 -42 -58 -45 -88 -51 -391 l-7 -328 -213 14
c-273 17 -272 16 -256 279 7 109 19 208 27 220 7 13 14 36 15 53 6 134 55 244
101 227 19 -7 29 2 29 28 0 77 28 81 175 25z m1029 -102 c25 -34 46 -69 46
-78 0 -39 94 -140 131 -140 21 0 39 -8 39 -18 0 -27 -375 -302 -457 -335 -40
-16 -91 -37 -113 -46 -69 -30 -236 -81 -266 -81 -128 0 -95 376 60 694 20 41
38 45 234 51 117 4 227 8 246 11 19 2 55 -24 80 -58z"/>
<path d="M4626 2459 c-275 -137 -274 -544 2 -678 185 -89 409 -30 516 137 210
328 -162 717 -518 541z m314 -189 c103 -94 85 -235 -39 -300 -227 -117 -427
195 -205 320 66 37 192 27 244 -20z"/>
</g>
</svg>
